<svg width="225" height="36" viewBox="0 0 225 36" fill="none" xmlns="http://www.w3.org/2000/svg">
<mask id="mask0_454_2647" style="mask-type:luminance" maskUnits="userSpaceOnUse" x="0" y="0" width="225" height="36">
<path d="M0 0H224.189V36H0V0Z" fill="white"/>
</mask>
<g mask="url(#mask0_454_2647)">
<path fill-rule="evenodd" clip-rule="evenodd" d="M195.907 25.248V15.748H190.676V26.258C190.676 29.814 194.357 32.7 198.899 32.7C203.441 32.7 207.122 29.814 207.122 26.258V15.748H201.93V25.248C201.93 26.828 200.58 28.112 198.92 28.112C197.259 28.112 195.91 26.829 195.91 25.248H195.907Z" fill="white"/>
<path d="M224.189 4.45605H218.92V32.1081H224.189V4.45605ZM215.285 4.45605H210.016V32.1081H215.285V4.45605Z" fill="white"/>
<path fill-rule="evenodd" clip-rule="evenodd" d="M113.629 10.258H110.765V32.108H105.16V5.72498H114.795C119.182 5.72498 122.735 9.21298 122.735 13.516C122.735 17.18 120.157 20.252 116.687 21.086L124.43 32.108H117.822L112.221 23.47V17.16H113.522C115.591 17.16 117.269 15.613 117.269 13.707C117.269 11.8 115.698 10.254 113.626 10.254L113.629 10.258Z" fill="white"/>
<path d="M140.987 25.0021C141.022 24.6421 141.038 24.2731 141.035 23.8951C141.115 18.1941 137.341 15.0631 132.532 15.0631C127.723 15.0631 123.824 19.0101 123.824 23.8781C123.824 28.7461 127.723 32.7001 132.532 32.7001C136.202 32.7001 139.067 31.0391 140.541 28.4371L136.265 26.4651C135.718 27.6421 134.445 28.4721 132.964 28.4681C130.913 28.4651 129.398 26.9601 129.38 25.1851V25.0051H140.984L140.987 25.0021ZM129.363 21.9721C129.378 21.1285 129.723 20.3246 130.325 19.7333C130.927 19.1421 131.737 18.8108 132.58 18.8108C133.424 18.8108 134.234 19.1421 134.836 19.7333C135.438 20.3246 135.783 21.1285 135.798 21.9721H129.359H129.363ZM161.958 32.1081L161.951 4.45605H156.7V17.5401C155.302 16.1561 153.441 15.3191 151.407 15.3191C147.055 15.3191 143.529 19.1761 143.529 23.9361C143.529 28.6961 147.055 32.5541 151.407 32.5541C153.462 32.5541 155.323 31.6791 156.724 30.2671V32.1071L161.958 32.1081ZM152.901 28.0681C150.767 28.0681 149.033 26.1711 149.033 23.8361C149.033 21.5011 150.763 19.6061 152.901 19.6061C155.039 19.6061 156.769 21.5011 156.769 23.8361C156.769 26.1711 155.039 28.0671 152.901 28.0671V28.0681ZM184.228 17.7471C185.671 16.4011 186.553 14.5991 186.553 12.6201C186.553 10.8281 185.861 9.17805 184.654 7.88405C183.398 6.50005 181.174 5.72505 178.167 5.72505H169.162V32.1081H180.793C185.249 32.0351 188.84 28.6691 188.84 24.5421C188.84 21.5391 187.781 19.3971 184.232 17.7471H184.228ZM179.818 27.5271H174.777V10.2571H178.292C179.835 10.2571 181.087 11.6691 181.087 13.2151C181.087 13.5822 181.015 13.9458 180.875 14.2851C180.734 14.6244 180.529 14.9327 180.269 15.1924C180.009 15.452 179.701 15.658 179.362 15.7985C179.023 15.9389 178.659 16.0112 178.292 16.0111H176.462V20.7541H179.818C181.689 20.7541 183.104 22.2621 183.104 24.1341C183.038 26.0671 181.852 27.4031 179.818 27.5271Z" fill="white"/>
<path d="M47.2679 36C57.2079 36 65.2679 27.941 65.2679 18C65.2679 8.059 57.2079 0 47.2679 0C37.3269 0 29.2679 8.059 29.2679 18C29.2679 27.941 37.3269 36 47.2679 36Z" fill="#FFCC00"/>
<path d="M45.984 26.351C44.967 25.777 44.766 24.646 44.234 23.954C44.016 23.68 43.656 23.376 43.559 23.127C42.642 20.781 42.331 19.463 42.009 17.173C41.843 16 41.065 15.011 39.93 13.623C39.435 13.018 38.73 12.018 38.12 11.427C36.073 9.701 34.966 8.742 33.6 7.822C33.3331 7.64095 33.0503 7.48464 32.755 7.355H32.748C32.7428 7.35395 32.7379 7.35153 32.734 7.348C32.278 7.148 31.866 7.092 31.305 7.061C31.2304 7.05658 31.1557 7.05424 31.081 7.054C30.063 7.054 29.095 7.424 28.119 8.178C27.41 8.642 26.597 8.901 25.809 9.15C24.815 9.465 23.784 9.794 22.944 10.527C22.794 10.635 22.657 10.787 22.522 10.929C22.338 11.126 22.207 11.351 21.927 11.441C21.684 11.496 21.511 11.496 21.314 11.513C21.0034 11.5364 20.6947 11.5805 20.39 11.645C19.356 11.89 18.564 12.527 17.73 13.202L17.446 13.43C16.906 13.859 15.976 14.25 15.45 14.267C13.98 14.312 12.939 14.658 11.856 15.464C10.738 16.319 9.54098 17.201 8.21598 17.744C7.91165 17.8622 7.58843 17.9242 7.26198 17.927C6.91598 17.927 6.42098 17.851 6.02698 17.485C5.52498 17.021 5.35898 16.128 5.65998 15.53C6.10998 14.644 7.02598 13.921 7.77398 13.388C8.73898 12.658 9.67298 11.7 9.25798 10.112C8.81098 8.659 7.03698 8.192 5.86398 7.881C5.53198 7.794 5.24398 7.718 5.07498 7.639C4.70498 7.466 4.44498 7.289 4.19298 7.119C3.94823 6.94152 3.68504 6.79098 3.40798 6.67C3.36098 6.65345 3.31177 6.64401 3.26198 6.642C3.09664 6.642 2.96431 6.72167 2.86498 6.881C2.44198 7.618 2.31798 8.369 2.49498 9.102C2.76798 10.306 3.95498 11.402 5.19298 11.596C5.31698 11.627 5.45898 11.638 5.59798 11.652C5.72598 11.662 5.85698 11.676 5.97798 11.7C5.15645 12.3345 4.40697 13.0571 3.74298 13.855C2.83698 14.921 2.58798 16.682 3.16498 17.948C3.66398 19.214 4.92998 20.245 6.24498 20.453C6.50398 20.501 6.78498 20.525 7.10198 20.525C7.55898 20.525 8.01898 20.477 8.45898 20.429C8.56598 20.419 8.67698 20.404 8.77998 20.394C8.82498 21.397 8.85998 22.02 9.41698 23.442C9.45098 23.532 9.42698 23.684 9.30998 23.788C9.21298 23.874 8.40298 24.21 8.17098 24.258C8.07284 24.2742 7.97341 24.2812 7.87398 24.279H7.54198C7.43198 24.279 7.28898 24.279 7.15098 24.299C6.64198 24.372 6.38998 24.801 6.20998 25.217C6.09998 25.469 6.01998 25.691 5.94998 25.881C5.77698 26.355 5.66998 26.649 5.33798 26.829C5.33798 26.829 4.64598 26.213 4.52798 26.129C4.36791 26.0346 4.18582 25.9839 3.99998 25.982C3.56398 25.982 3.17698 26.259 2.80298 26.525C2.68974 26.6096 2.57297 26.6893 2.45298 26.764C2.13898 26.961 1.90298 27.297 1.83498 27.646C1.32598 27.902 0.827977 28.21 0.595977 28.719C0.485977 28.937 0.464977 29.203 0.443977 29.459C0.435514 29.5806 0.421499 29.7017 0.401977 29.822C0.362342 29.9033 0.317238 29.9818 0.266977 30.057C0.125977 30.251 0.000976562 30.538 0.000976562 30.715C0.000976562 31.088 0.138977 31.23 0.346977 31.407C0.599977 31.587 1.28798 31.797 1.77898 31.919C1.81482 31.9288 1.85184 31.9335 1.88898 31.933C2.03898 31.933 2.15898 31.856 2.27398 31.783C2.32898 31.749 2.38398 31.711 2.44698 31.683C2.85198 31.78 3.44998 31.905 4.03098 31.905C4.33231 31.9043 4.60564 31.871 4.85098 31.805C5.44298 31.645 5.94798 30.843 6.22098 30.41C6.28698 30.306 6.35298 30.203 6.36998 30.189C6.38699 30.1805 6.40607 30.177 6.42498 30.179C6.51498 30.179 6.66098 30.22 6.81598 30.265C6.99598 30.317 7.20398 30.375 7.39098 30.393C8.05798 30.452 8.69498 30.037 9.10698 29.729C9.27598 29.604 9.45898 29.428 9.63898 29.259C9.83898 29.068 10.044 28.871 10.221 28.753C10.4547 28.6586 10.7049 28.6117 10.957 28.615C11.047 28.6143 11.1463 28.619 11.255 28.629C11.735 28.729 12.365 28.847 12.978 28.847C13.59 28.847 14.054 28.743 14.458 28.532L14.832 28.338C15.237 28.131 15.652 27.92 16.046 27.705C16.807 27.293 17.112 26.615 17.361 26.072L17.423 25.934C17.569 25.619 17.79 25.048 17.849 24.906C17.9656 24.9227 18.088 24.9307 18.216 24.93C18.627 24.93 19.032 24.844 19.423 24.76C19.807 24.678 20.208 24.595 20.609 24.595C20.821 24.595 21.014 24.615 21.208 24.664C21.928 24.806 22.876 24.969 23.841 24.969C24.341 24.9735 24.8398 24.9212 25.328 24.813C25.439 24.92 25.564 25.013 25.685 25.103C25.805 25.193 25.916 25.276 26.02 25.377C25.909 25.3967 25.7972 25.4117 25.685 25.422C25.349 25.46 25 25.498 24.744 25.772C24.4672 25.66 24.1705 25.6056 23.872 25.612C23.5334 25.6199 23.1959 25.6523 22.862 25.709C22.7266 25.729 22.595 25.7473 22.467 25.764C21.952 25.826 21.599 26.024 21.416 26.359C21.305 26.577 21.222 26.806 21.402 27.179L22.415 28.86C22.54 29.078 22.747 29.255 22.889 29.265C22.965 29.272 23.066 29.265 23.176 29.255C23.264 29.247 23.3516 29.2423 23.439 29.241C23.6016 29.241 23.7 29.2687 23.734 29.324C23.7846 29.4027 23.834 29.481 23.882 29.559C24.09 29.885 24.304 30.224 24.629 30.511C25.121 30.94 25.913 31.119 26.657 30.947C26.937 30.8437 27.217 30.742 27.497 30.642C28.373 30.327 29.279 30.002 30.157 29.629L31.614 29.421C32.095 29.327 32.462 28.677 32.583 28.407L32.614 28.345C32.614 28.345 33.054 27.473 33.188 26.944C33.195 27.034 33.195 27.154 33.195 27.321C33.195 28.144 33.341 29.186 34.745 29.131C35.527 29.099 36.565 28.636 37.305 28.501C38.08 28.369 39.09 28.698 39.841 28.331C40.571 28.034 40.99 27.466 41.107 27.584C41.5915 28.0563 42.1669 28.4253 42.7983 28.6687C43.4296 28.9121 44.1038 29.0248 44.78 29C45.829 28.966 45.943 28.125 45.21 27.744C46.641 27.91 47.064 27.136 46.797 26.886C46.627 26.727 46.527 26.648 45.984 26.343V26.351ZM33.125 25.569C32.585 24.839 32.233 24.321 32.181 23.653C32.869 23.573 33.499 23.345 34.523 23.29C34.256 24.082 33.34 24.459 33.122 25.566L33.125 25.569ZM93.976 30.216C93.927 30.119 93.879 30.026 93.851 29.956C93.806 29.801 93.799 29.638 93.789 29.465C93.779 29.275 93.769 29.077 93.709 28.891C93.547 28.351 92.969 28.015 92.502 27.825C92.485 27.621 92.447 27.4 92.257 27.265C91.45 26.69 91.028 26.365 90.8 26.192C90.665 26.088 90.617 26.05 90.589 26.04C90.4934 25.9955 90.3894 25.9716 90.284 25.97C89.928 25.97 89.644 26.254 89.368 26.524L89.178 26.711C89.171 26.718 89.168 26.718 89.157 26.718C89.07 26.718 88.89 26.452 88.845 26.331C88.765 26.116 88.704 25.912 88.641 25.715C88.5377 25.3481 88.4046 24.9902 88.243 24.645C87.939 24.04 87.289 24.03 86.714 24.02H86.552C86.289 24.02 85.942 23.982 85.88 23.808C85.818 23.636 85.946 23.31 86.026 23.072C86.081 22.906 86.133 22.75 86.15 22.598C86.296 21.948 86.306 21.082 86.178 20.38C86.323 20.384 86.468 20.4 86.621 20.418C86.7516 20.436 86.8876 20.4487 87.029 20.456H87.154C88.019 20.456 88.749 20.286 89.385 19.941C90.668 19.169 91.454 17.924 91.485 16.599C91.44 15.907 91.277 15.336 90.925 14.63C90.451 13.696 89.662 12.776 88.51 11.821C89.177 11.683 89.731 11.521 90.243 11.198C91.288 10.534 91.751 9.33 91.547 7.805C91.492 7.445 91.353 6.822 91.049 6.66C91.0053 6.6368 90.9565 6.62478 90.907 6.625C90.686 6.625 90.471 6.864 90.281 7.075C90.211 7.155 90.143 7.227 90.084 7.279C89.728 7.597 89.309 7.68 88.87 7.767C88.638 7.812 88.4 7.86 88.174 7.943C87.122 8.286 85.334 9.067 85.174 10.489C85.019 11.894 86.019 12.839 86.988 13.752C87.309 14.056 87.618 14.343 87.88 14.648C88.44 15.295 88.918 15.938 88.793 16.665C88.749 16.914 88.396 17.295 88.06 17.447C87.8026 17.5363 87.5386 17.581 87.268 17.581C86.372 17.581 85.51 17.091 84.753 16.654L84.645 16.592C82.888 15.374 81.072 14.112 78.82 13.872C77.962 13.707 77.218 13.188 76.495 12.682C76.329 12.565 76.1616 12.45 75.993 12.337C75.2354 11.8922 74.4009 11.594 73.533 11.458C73.083 11.399 72.727 11.105 72.35 10.798C72.1548 10.6288 71.9469 10.475 71.728 10.338C70.8448 9.76805 69.8603 9.37322 68.828 9.175C68.7261 9.14419 68.6226 9.11882 68.518 9.099C68.248 9.043 67.967 8.981 67.773 8.777C67.476 8.427 67.067 7.977 66.573 7.625C65.912 7.182 64.885 6.711 63.989 6.711C63.8078 6.70858 63.6272 6.73078 63.452 6.777C62.954 6.902 62.567 7.192 62.158 7.5L62.003 7.614C61.183 8.254 60.093 9.134 59.235 9.746C56.675 11.569 55.713 12.368 54.444 13.756C51.178 17.322 52.171 22.66 49.348 25.753C48.618 26.555 48.414 26.659 48.148 26.881C47.818 27.157 47.742 28.628 49.88 27.908C48.905 28.742 49.52 29.129 50.16 29.143C51.289 29.167 52.534 28.776 53.755 27.476C54.603 28.696 56.08 28.133 56.848 28.196C57.568 28.254 58.893 29.036 59.664 28.991C60.84 28.918 61.273 27.742 61.155 27.088C61.345 27.088 61.397 27.043 61.449 26.95C61.588 27.631 61.681 28.098 61.813 28.44C61.8243 28.4653 61.839 28.4953 61.857 28.53V28.538C61.941 28.686 62.114 29.015 62.287 29.174C62.487 29.416 62.788 29.448 63.027 29.448C63.124 29.448 63.221 29.441 63.314 29.438C63.4206 29.4307 63.5243 29.427 63.625 29.427C63.7142 29.4935 63.7997 29.565 63.881 29.641C64.071 29.807 64.265 29.981 64.504 30.046C65.618 30.333 66.542 30.589 67.438 30.904C67.621 30.963 67.901 31.039 68.181 31.039C68.2723 31.039 68.36 31.031 68.444 31.015C69.296 30.831 70.054 30.102 70.24 29.275C70.254 29.147 70.347 29.136 70.506 29.129C70.621 29.126 70.752 29.119 70.825 29.036C71.288 28.666 71.572 28.157 71.849 27.669C71.9063 27.565 71.9663 27.4603 72.029 27.355C72.1003 27.2317 72.1407 27.093 72.1466 26.9507C72.1526 26.8084 72.1239 26.6668 72.063 26.538C71.973 26.358 71.8103 26.228 71.575 26.148C71.132 26.023 70.638 26.012 70.212 26.012H69.742C69.52 26.012 69.264 26.012 69.015 25.988L68.835 25.791C68.704 25.673 68.538 25.646 68.375 25.618L68.258 25.598L68.662 25.282C68.824 25.2867 68.9843 25.289 69.143 25.289C70.084 25.289 70.949 25.206 71.721 25.044C72.4077 24.8789 73.1108 24.7917 73.817 24.784C73.911 24.7827 74.0066 24.785 74.104 24.791C74.2193 24.7977 74.3346 24.8057 74.45 24.815C74.872 24.843 75.305 24.875 75.737 24.875C76.308 24.875 76.772 24.822 77.187 24.712C77.239 24.919 77.28 25.123 77.318 25.324C77.47 26.078 77.612 26.791 78.193 27.41C78.543 27.856 78.999 28.112 79.443 28.365C79.671 28.493 79.903 28.638 80.127 28.787C80.425 28.939 80.664 28.963 81.006 28.963C81.483 28.963 82.092 28.759 82.438 28.759C83.881 28.759 84.995 29.541 86.202 30.485C86.417 30.627 86.68 30.7 86.981 30.7C87.347 30.7 87.759 30.59 88.119 30.395L88.147 30.437C88.367 30.748 88.6 31.074 88.911 31.327C89.357 31.731 89.935 31.787 90.441 31.787C90.61 31.787 90.786 31.779 90.956 31.772C91.198 31.762 91.443 31.752 91.679 31.762C91.772 31.893 91.952 31.994 92.094 31.987C92.236 31.98 93.796 31.471 93.879 31.444C93.962 31.417 94.079 31.347 94.079 31.347C94.457 31.153 94.183 30.607 93.983 30.205L93.976 30.216ZM61.67 25.62C61.293 24.87 60.998 24.195 60.531 23.49C61.601 23.742 62.821 23.62 62.821 23.62C62.476 24.112 62.081 24.814 61.67 25.62Z" fill="#FFCC00"/>
<path d="M68.323 26.362C68.267 26.292 68.157 26.282 68.094 26.282C68.0674 26.2814 68.0407 26.2827 68.014 26.286C67.821 26.31 67.644 26.32 67.461 26.32C67.3666 26.3196 67.2723 26.3173 67.178 26.313C67.101 26.313 67.032 26.306 66.963 26.306C66.849 26.306 66.756 26.313 66.663 26.331H66.641L66.631 26.351C66.617 26.379 66.261 27.001 66.309 27.396C66.361 27.822 66.793 27.908 67.122 27.974C67.24 27.998 67.375 28.022 67.513 28.022C67.7477 28.0214 67.9044 27.943 67.983 27.787C68.1545 27.3663 68.2776 26.9275 68.35 26.479C68.3556 26.4577 68.3561 26.4353 68.3514 26.4138C68.3467 26.3922 68.337 26.3721 68.323 26.355V26.362ZM91.826 27.766C91.622 27.472 91.266 27.236 90.982 27.046C90.8683 26.9764 90.7594 26.8992 90.656 26.815L90.598 26.773C90.5333 26.7179 90.4511 26.6874 90.366 26.687C90.044 26.687 89.695 27.074 89.688 27.205C89.678 27.399 89.954 27.745 90.314 28.175L90.39 28.268C90.5733 28.486 90.7693 28.6024 90.978 28.617C91.189 28.617 91.355 28.547 91.532 28.382C91.663 28.261 91.954 27.956 91.822 27.769L91.826 27.766ZM93.332 30.271C93.2824 30.1733 93.2409 30.0716 93.208 29.967C93.1781 29.8205 93.1547 29.6727 93.138 29.524C93.108 29.288 93.08 29.064 93.007 28.891C92.9548 28.7843 92.8743 28.694 92.7744 28.6298C92.6744 28.5657 92.5588 28.5301 92.44 28.527C92.3579 28.526 92.2769 28.5453 92.204 28.583C91.852 28.759 91.64 28.95 91.699 29.347C91.893 29.925 91.989 30.344 92.118 30.914C92.132 31.001 92.191 31.288 92.328 31.288C92.3394 31.288 92.35 31.287 92.36 31.285L93.374 30.953C93.3976 30.946 93.4194 30.934 93.4378 30.9178C93.4563 30.9015 93.471 30.8815 93.481 30.859C93.54 30.724 93.433 30.496 93.329 30.274L93.332 30.271Z" fill="#D2003C"/>
<path d="M91.54 31.08C91.4598 30.4571 91.2869 29.8498 91.027 29.278L91.014 29.251H90.983C90.394 29.288 90.031 28.811 89.678 28.354C89.561 28.202 89.453 28.06 89.336 27.936C89.1613 27.7405 88.9728 27.5577 88.772 27.389C88.564 27.209 88.388 27.05 88.319 26.909C88.236 26.735 88.146 26.403 88.059 26.081C87.997 25.853 87.939 25.635 87.883 25.486L87.848 25.393C87.741 25.109 87.613 24.756 87.246 24.698C87.063 24.667 86.862 24.66 86.672 24.653C86.142 24.632 85.61 24.539 85.337 24.158C85.084 23.808 85.187 23.483 85.33 23.138C85.392 22.985 85.437 22.858 85.472 22.712C85.662 22.072 85.728 21.276 85.582 20.719C85.5585 20.6291 85.5308 20.5403 85.499 20.453C85.423 20.221 85.333 19.868 85.389 19.761C85.447 19.654 85.506 19.636 85.613 19.636C85.707 19.636 85.814 19.668 85.914 19.696C85.987 19.716 86.042 19.726 86.112 19.744C86.374 19.806 86.769 19.878 87.129 19.878C87.724 19.878 88.349 19.75 88.889 19.518C89.91 19.024 90.917 17.907 90.865 16.523C90.73 15.122 89.865 13.769 88.215 12.382C88.177 12.347 88.132 12.312 88.09 12.278C87.876 12.101 87.616 11.877 87.61 11.679C87.604 11.481 88.118 11.361 88.44 11.285C88.5154 11.269 88.582 11.253 88.64 11.237L88.723 11.216C89.135 11.109 89.557 10.998 89.907 10.756C91.083 9.96301 91.041 8.56901 90.907 7.80101C90.901 7.78101 90.895 7.75701 90.889 7.72901C90.869 7.62901 90.841 7.50401 90.747 7.50401C90.713 7.50628 90.681 7.52085 90.657 7.54501L90.55 7.64501C90.415 7.77401 90.266 7.91901 90.093 8.01501C89.72 8.23701 89.27 8.33101 88.838 8.42101C88.561 8.47901 88.274 8.53801 88.008 8.63101C86.838 9.03601 86.112 9.62801 85.852 10.392C85.717 10.79 85.79 11.292 86.049 11.776C86.433 12.382 86.983 12.911 87.519 13.423C88.364 14.233 89.235 15.066 89.436 16.201C89.546 16.861 89.277 17.419 88.616 17.9C88.27 18.107 87.827 18.218 87.336 18.218C86.7136 18.2126 86.1016 18.0583 85.551 17.768C84.866 17.426 84.205 16.983 83.565 16.554C82.603 15.911 81.607 15.246 80.504 14.894C80.026 14.675 79.494 14.568 78.981 14.464C78.251 14.316 77.497 14.164 76.891 13.689C76.683 13.5519 76.4789 13.4088 76.279 13.26C75.729 12.863 75.162 12.45 74.519 12.288C74.279 12.205 74.045 12.174 73.816 12.14C73.463 12.088 73.135 12.043 72.83 11.825L72.415 11.524C71.903 11.15 71.374 10.763 70.845 10.496C69.935 10.043 68.966 9.80801 67.883 9.57301C67.537 9.49001 67.323 9.23001 67.094 8.95301C66.942 8.76701 66.783 8.57601 66.582 8.44101C65.749 7.78101 64.991 7.33801 64.015 7.33801C63.9237 7.33801 63.8327 7.34135 63.742 7.34801C63.23 7.38301 62.732 7.77001 62.4 8.06101C61.428 8.91101 60.38 9.66901 59.37 10.403C57.86 11.493 56.304 12.62 54.972 14.077C53.661 15.43 53.187 17.117 52.723 18.754C52.654 18.996 52.589 19.235 52.516 19.477C52.391 19.924 52.277 20.384 52.166 20.827C51.565 23.237 50.946 25.646 48.537 27.209C48.378 27.313 48.434 27.514 48.582 27.569C48.645 27.593 49.655 27.932 50.662 26.922C51.27 26.168 51.609 25.472 52.336 24.694C52.36 24.67 52.443 24.604 52.512 24.611C52.561 24.635 52.575 24.66 52.561 24.746C52.467 25.058 52.277 25.331 52.091 25.597C51.901 25.87 51.706 26.151 51.609 26.472C51.378 27.164 50.734 27.725 50.163 28.216C50.163 28.216 50.073 28.275 50.022 28.341C49.97 28.406 49.97 28.434 49.97 28.434C49.952 28.586 50.073 28.68 50.319 28.69C51.669 28.69 52.63 27.732 53.557 26.801C53.5773 26.7805 53.6017 26.7647 53.6286 26.7545C53.6555 26.7443 53.6843 26.74 53.713 26.742C53.7638 26.7405 53.8143 26.7486 53.862 26.766C53.924 26.801 54.066 26.94 54.176 27.036C54.481 27.306 54.792 27.586 55.2 27.669H55.214C55.706 27.6 56.148 27.545 56.605 27.545C56.7384 27.5443 56.8607 27.549 56.972 27.559C57.463 27.707 57.958 27.894 58.432 28.071C58.767 28.199 59.113 28.327 59.462 28.444H59.477C59.927 28.427 60.247 28.009 60.483 27.638C60.593 27.375 60.542 27.119 60.49 26.87C60.459 26.715 60.428 26.57 60.438 26.427C60.521 26.386 60.635 26.393 60.757 26.41C60.864 26.427 61.019 26.41 61.071 26.403C61.189 26.386 61.313 26.251 61.279 26.075C61.189 25.625 60.964 25.348 60.739 25.002C60.542 24.708 60.355 24.432 60.262 24.12C60.113 23.708 59.798 23.366 59.494 23.034C59.141 22.65 58.809 22.286 58.708 21.826C58.708 21.826 58.678 21.729 58.712 21.691C58.746 21.653 58.84 21.698 58.84 21.698C59.002 21.816 59.165 21.948 59.32 22.075C59.833 22.491 60.362 22.923 61.006 23.02C61.604 23.079 62.261 23.155 62.901 23.1C63.071 23.072 63.157 22.923 63.116 22.781C62.86 22.241 62.597 21.661 62.438 21.027C62.303 20.55 62.002 19.294 62.31 18.346C62.341 18.253 62.403 18.221 62.459 18.221C62.4644 18.2203 62.4724 18.2217 62.483 18.225C62.587 18.249 62.656 18.374 62.67 18.47L62.68 18.595C62.77 19.885 62.856 21.103 63.645 22.141C63.856 22.477 64.157 22.653 64.448 22.826C64.648 22.944 64.88 23.051 65.026 23.238C65.192 23.448 65.219 23.808 65.106 24.026L64.136 25.456C63.908 25.781 63.686 26.13 63.607 26.486C63.535 26.846 63.566 27.196 63.597 27.535L63.604 27.617C63.5729 27.5978 63.5477 27.5705 63.531 27.538C63.141 26.832 63.061 26.234 63.261 25.774C63.389 25.476 64.178 24.359 64.406 23.992C64.479 23.874 64.538 23.757 64.476 23.677C64.399 23.577 63.808 23.324 63.652 23.324C63.642 23.3233 63.6317 23.3247 63.621 23.328C63.483 23.366 63.393 23.494 63.313 23.608L63.258 23.684L62.064 25.85L62.036 25.93C61.967 26.147 61.906 26.334 61.967 26.583C62.033 26.908 62.133 27.258 62.209 27.513L62.272 27.725C62.379 28.102 62.479 28.455 62.645 28.652C62.6949 28.7121 62.7581 28.7597 62.8297 28.7909C62.9012 28.8222 62.9791 28.8363 63.057 28.832C63.147 28.832 63.24 28.818 63.33 28.804C63.48 28.78 63.642 28.763 63.763 28.794C63.943 28.839 64.067 28.974 64.199 29.112C64.33 29.254 64.465 29.399 64.666 29.458C65.036 29.583 65.423 29.683 65.797 29.78C66.295 29.911 66.811 30.046 67.302 30.236C67.579 30.326 67.876 30.409 68.163 30.409C68.482 30.409 68.679 30.319 68.956 30.095C69.343 29.78 69.471 29.468 69.568 29.019C69.644 28.607 69.782 28.579 70.08 28.562C70.225 28.555 70.246 28.562 70.388 28.514C70.537 28.465 70.969 27.936 71.194 27.504C71.2574 27.3853 71.3207 27.279 71.384 27.185C71.4438 27.1065 71.4768 27.0107 71.478 26.912C71.478 26.697 71.298 26.632 71.184 26.628H71.107C71.107 26.628 69.834 26.618 69.485 26.628C68.963 26.656 68.735 27.158 68.551 27.604C68.478 27.777 68.412 27.936 68.326 28.078C68.188 28.327 67.918 28.479 67.586 28.472C67.489 28.472 67.274 28.413 67.164 28.386C66.475 28.216 65.766 28.043 65.475 27.358C65.448 27.241 65.403 26.998 65.575 26.794C65.942 26.369 66.427 25.829 66.925 25.442C67.617 25.296 68.309 24.784 68.689 24.141C68.769 24.03 68.81 23.899 68.852 23.774C68.914 23.58 68.972 23.397 69.149 23.283C69.26 23.227 69.35 23.245 69.374 23.342C69.44 23.702 69.305 24.047 69.17 24.382C69.1398 24.4568 69.1112 24.5321 69.084 24.608L69.063 24.663L69.122 24.67C69.3134 24.688 69.508 24.6973 69.706 24.698C70.416 24.698 71.09 24.577 71.744 24.459C72.391 24.341 73.062 24.22 73.754 24.22C73.8274 24.2193 73.9024 24.2207 73.979 24.224C74.287 24.224 74.584 24.251 74.875 24.276C75.159 24.3 75.453 24.328 75.747 24.328C75.85 24.328 75.947 24.328 76.044 24.318C76.93 24.276 77.574 23.874 77.767 23.238C77.95 22.695 77.93 21.758 77.708 20.449C77.698 20.387 77.691 20.346 77.691 20.339V20.315C77.691 20.266 77.691 20.215 77.757 20.183C77.84 20.138 77.927 20.183 77.967 20.29C78.303 21.231 78.497 22.314 78.601 23.058C78.715 23.781 79.016 24.514 79.528 25.296C80.161 26.241 81.206 26.784 82.392 26.784C82.669 26.784 82.946 26.732 83.219 26.697C83.409 26.673 83.482 26.683 83.61 26.683C85.119 26.683 86.43 27.337 87.409 28.573C87.409 28.573 87.426 28.597 87.426 28.631C87.426 28.683 87.35 28.735 87.284 28.707L87.156 28.607C86.306 27.947 85.426 27.265 84.323 27.13C84.1173 27.0946 83.9088 27.0772 83.7 27.078C83.3876 27.0828 83.0757 27.1058 82.766 27.147C82.462 27.182 82.178 27.217 81.884 27.217C81.5421 27.2234 81.2023 27.1622 80.884 27.037C79.614 26.617 78.577 25.157 78.244 24.251C78.232 24.2255 78.2131 24.204 78.1894 24.1888C78.1657 24.1736 78.1382 24.1653 78.11 24.165C78.0754 24.1643 78.0394 24.176 78.002 24.2C77.854 24.293 77.829 24.341 77.809 24.431C77.788 24.507 77.912 25.158 77.968 25.438C78.134 26.13 78.383 27.175 79.289 27.562C79.401 27.6293 79.513 27.6997 79.625 27.773C80.078 28.063 80.545 28.365 81.081 28.365C81.2097 28.365 81.3364 28.3477 81.461 28.313C81.7844 28.2423 82.112 28.2067 82.444 28.206C83.489 28.206 84.551 28.562 85.444 29.212C85.592 29.299 85.734 29.416 85.869 29.531C86.063 29.693 86.26 29.859 86.496 29.946C86.644 30.006 86.803 30.036 86.973 30.036C87.378 30.036 87.481 29.915 87.769 29.773C87.8745 29.7207 87.9903 29.6924 88.108 29.69C88.433 29.69 88.613 29.942 88.841 30.264C88.979 30.458 89.135 30.676 89.346 30.866C89.64 31.153 90.048 31.188 90.37 31.188C90.547 31.188 90.723 31.174 90.896 31.164C91.062 31.154 91.263 31.146 91.37 31.136C91.474 31.122 91.533 31.108 91.533 31.108V31.067L91.54 31.08ZM57.165 26.255C57.107 26.362 56.965 26.424 56.778 26.424C56.6227 26.4273 56.4698 26.3852 56.338 26.303C56.096 26.13 55.955 25.843 55.934 25.466C55.93 25.379 55.924 25.289 56.041 25.203C56.1 25.168 56.135 25.168 56.204 25.168C56.435 25.168 56.806 25.317 57.003 25.556C57.017 25.573 57.325 25.981 57.166 26.258L57.165 26.255ZM57.498 20.93C57.411 21.041 57.28 21.124 57.152 21.062C57.031 21.02 56.923 20.864 56.858 20.747C56.775 20.598 56.705 20.47 56.508 20.484H56.477C56.304 20.498 56.173 20.584 56.034 20.691C55.965 20.747 55.684 20.955 55.616 21.013C55.239 21.332 54.858 21.66 54.768 22.106C54.7491 22.1857 54.7317 22.2657 54.716 22.346C54.688 22.501 54.661 22.663 54.529 22.746H54.519C54.5013 22.7567 54.4807 22.7616 54.46 22.76C54.4003 22.7579 54.343 22.7361 54.297 22.698C54.2734 22.6801 54.2541 22.6572 54.2404 22.6309C54.2268 22.6046 54.2191 22.5756 54.218 22.546C54.152 21.778 54.412 21.086 54.951 20.595C55.301 20.308 55.581 19.948 55.854 19.598C55.986 19.428 56.124 19.252 56.266 19.09C56.373 18.983 56.55 19.073 56.84 19.39C56.961 19.522 57.342 20.17 57.515 20.595C57.5351 20.648 57.5437 20.7046 57.5403 20.7612C57.5368 20.8177 57.5214 20.8729 57.495 20.923L57.498 20.93ZM63.853 12.001C63.708 12.14 63.555 12.278 63.403 12.42C62.863 12.911 62.306 13.42 61.94 13.994C61.767 14.229 61.639 14.499 61.514 14.762C61.5 14.79 61.469 14.848 61.41 14.848C61.3795 14.846 61.3509 14.8324 61.33 14.81C61.227 14.706 61.313 13.983 61.448 13.62C61.746 12.818 62.42 11.977 63.303 11.316C63.4009 11.256 63.5132 11.2238 63.628 11.223C63.794 11.223 63.922 11.299 63.974 11.43C64.084 11.607 64.044 11.814 63.853 12.001ZM27.803 27.206C27.7719 27.154 27.7433 27.1006 27.717 27.046C27.627 26.877 27.579 26.697 27.534 26.541C27.444 26.227 27.368 25.953 27.025 26.001C26.541 26.071 26.07 26.102 25.545 26.102C25.537 26.102 25.375 26.102 25.323 26.216C25.264 26.348 25.396 26.472 25.538 26.6C25.617 26.673 25.7 26.749 25.755 26.832C25.852 26.974 25.945 27.178 26.035 27.375C26.177 27.69 26.302 27.96 26.444 28.005C26.509 28.0236 26.5764 28.0327 26.644 28.032C26.974 28.032 27.426 27.856 27.755 27.6C27.938 27.444 27.88 27.34 27.797 27.202L27.803 27.206ZM4.14403 26.715L4.11703 26.694C4.01703 26.614 3.83703 26.624 3.71503 26.708C3.63203 26.766 3.54503 26.822 3.46303 26.878C3.19303 27.057 2.91303 27.24 2.61903 27.489C2.51103 27.579 2.45203 27.749 2.44203 27.88C2.43203 27.984 2.45203 28.067 2.49403 28.12C2.51803 28.147 2.73303 28.385 2.77803 28.424C2.87241 28.508 2.9937 28.5555 3.12003 28.558C3.22129 28.5556 3.3206 28.5296 3.41003 28.482C3.93303 28.22 4.47303 27.251 4.49403 27.195C4.54903 27.04 4.37303 26.898 4.14403 26.715ZM2.42103 29.012C2.31403 28.86 1.95803 28.441 1.75703 28.441C1.74003 28.441 1.72203 28.441 1.70903 28.451C1.43203 28.565 1.11003 28.925 1.09303 29.14C1.02303 30.077 0.996025 30.177 0.740025 30.465C0.667025 30.545 0.619025 30.731 0.702025 30.811C0.774025 30.883 1.69503 31.174 1.79803 31.174H1.81903C1.90203 31.146 1.97103 30.935 2.15903 30.288C2.25903 29.938 2.37303 29.544 2.50103 29.188C2.50803 29.164 2.51103 29.129 2.42803 29.012H2.42103Z" fill="#D2003C"/>
<path d="M30.6429 28.95C31.0199 28.922 31.4109 28.894 31.6879 28.6C32.0379 28.091 32.3379 27.58 32.6019 27.04C32.8369 26.555 32.8399 26.081 32.6089 25.711C31.9129 24.597 31.7889 24.303 31.5049 23.546L31.4979 23.525L31.4779 23.518C31.3957 23.4925 31.3146 23.4635 31.2349 23.431C31.0649 23.366 30.8849 23.293 30.6819 23.293H30.6539C30.4149 23.3 30.2529 23.376 30.1869 23.508L30.1769 23.528L31.4389 26.019C31.5189 26.213 31.6119 26.41 31.5639 26.701C31.5149 26.991 30.8959 27.967 30.7089 28.091C30.6777 28.1168 30.6393 28.1325 30.5989 28.136C30.5849 28.136 30.5189 28.123 30.5599 27.977C30.6779 27.573 30.8269 26.621 30.7849 26.317C30.7399 25.964 29.6819 24.213 29.6369 24.137L29.6159 24.107C29.4529 23.84 29.2839 23.563 29.2979 23.241C29.2979 23.092 29.4359 22.989 29.5359 22.951C29.7199 22.881 29.8959 22.854 30.0829 22.812C30.5329 22.712 30.9959 22.612 31.1629 22.359C31.6679 21.591 31.9679 20.789 32.1689 19.678C32.1789 19.629 32.2139 19.536 32.2829 19.536C32.3249 19.536 32.3659 19.55 32.3829 19.646C32.4743 20.1713 32.4603 20.7096 32.3417 21.2294C32.223 21.7493 32.0022 22.2403 31.6919 22.674C31.6481 22.7466 31.6321 22.8326 31.6469 22.916C31.6609 23.006 31.7609 23.079 31.7609 23.079C32.0029 23.245 32.8889 23.148 33.5319 22.812C34.0229 22.822 34.4839 22.736 34.9329 22.653C35.0756 22.6257 35.2163 22.6003 35.3549 22.577C35.3999 22.601 35.4349 22.643 35.4419 22.674C35.0649 23.099 34.8359 23.577 34.7189 24.175C34.6117 24.2836 34.501 24.3887 34.3869 24.49C33.9749 24.867 33.5319 25.29 33.5109 25.829C33.5109 25.829 33.4979 26.023 33.7089 26.036C33.7739 26.04 33.8499 26.006 33.9189 25.978C33.9867 25.9429 34.0616 25.9237 34.1379 25.922C34.1702 25.9266 34.1998 25.9423 34.2217 25.9664C34.2436 25.9905 34.2564 26.0215 34.2579 26.054L33.7879 26.742C33.6119 27.029 33.6879 27.334 33.7569 27.632C33.8089 27.794 33.7849 27.922 33.8299 28.067C33.9469 28.41 34.3659 28.572 34.6979 28.572C35.3099 28.545 35.8679 28.344 36.4069 28.15C36.5039 28.116 36.5969 28.081 36.6969 28.047C37.2889 27.791 38.0779 27.739 39.0159 27.891C39.7699 27.842 40.3369 27.344 40.8869 26.86C41.1223 26.8667 41.3646 27.005 41.6139 27.275C42.4299 28.15 43.4299 28.575 44.6719 28.575H44.8139L44.9379 28.565C45.0659 28.535 45.1009 28.472 45.1079 28.392C45.1179 28.296 45.0419 28.199 44.9039 28.133L44.2079 27.763C43.6509 27.41 43.0459 26.984 42.8799 26.423C42.6999 25.825 42.3639 25.217 42.1119 24.812C42.0606 24.7294 42.0062 24.6487 41.9489 24.57C41.8519 24.428 41.7489 24.282 41.6789 24.13C42.4369 24.4 42.8619 24.96 43.3749 25.895C43.7549 26.59 44.7449 27.337 45.6819 27.337C45.8069 27.337 45.9239 27.323 46.0419 27.299C46.1419 27.279 46.2079 27.213 46.2219 27.126C46.2319 27.05 46.2219 26.977 46.1389 26.932L45.5709 26.649C44.8969 26.254 44.5089 25.604 44.1319 24.971C43.9829 24.721 43.8319 24.466 43.6649 24.234C43.5579 24.074 43.3709 23.909 43.2089 23.764C43.0669 23.636 42.9319 23.514 42.9069 23.449C42.2919 21.767 41.6209 19.792 41.4579 17.595C41.4339 17.26 41.1979 16.523 40.9179 16.045C40.0429 14.62 37.9529 12.181 37.8389 12.06C37.7669 11.9844 37.6932 11.9104 37.6179 11.838L37.5619 11.783L33.7979 8.65601C33.0509 8.13001 32.8229 8.03601 32.2799 7.84301C31.8994 7.71215 31.4993 7.64788 31.0969 7.65301C30.5639 7.65301 30.0309 7.75601 29.5949 7.94301C29.2949 8.10301 29.0039 8.28901 28.7199 8.46901C28.2399 8.77701 27.7399 9.09501 27.2009 9.27501C26.7789 9.46501 26.3259 9.60401 25.8869 9.73901C25.0319 10.001 24.1499 10.275 23.4509 10.919C23.2469 11.105 23.0809 11.261 22.9419 11.396C22.2959 12.005 22.2299 12.07 21.7009 12.07C20.4759 12.07 19.6079 12.371 18.7009 13.108C17.9849 13.758 17.2759 14.368 16.4489 14.655C16.0789 14.783 15.6669 14.831 15.2309 14.873C14.6049 14.928 14.5079 14.935 13.9169 15.077C13.0239 15.281 12.0769 16.017 11.2769 16.64C11.0139 16.844 10.6649 17.114 10.4989 17.222C10.4119 17.277 10.3089 17.342 10.2249 17.392C9.22893 17.972 8.29093 18.522 7.08693 18.522H6.99693C6.09793 18.457 5.28193 17.837 5.00793 17.017C4.75593 16.094 5.02593 15.146 5.75493 14.419C6.10093 14.073 6.49493 13.738 6.87993 13.413C7.49593 12.89 8.07693 12.395 8.48193 11.853C8.95193 11.223 8.89993 10.161 8.37093 9.58301C7.84493 9.00501 6.66893 8.71801 6.22593 8.61101L6.14993 8.59301C6.10493 8.58301 6.02893 8.57301 5.98693 8.56301C5.70693 8.50701 5.43693 8.46901 5.16393 8.40301C4.46493 8.21301 3.92193 7.67001 3.30293 7.33801C3.06393 7.70401 2.98393 8.10201 3.01593 8.54501C3.13293 9.47901 3.91193 10.448 4.77593 10.842C4.81393 10.856 4.84893 10.873 4.88693 10.884C5.15993 11.001 5.44693 11.019 5.71693 11.019H6.06693C6.23293 11.019 6.43393 11.019 6.61293 11.064C6.708 11.0915 6.79303 11.146 6.85767 11.2209C6.9223 11.2958 6.96374 11.3879 6.97693 11.486C6.99093 11.61 6.93493 11.707 6.77693 11.828L6.33693 12.191C5.59293 12.804 4.82493 13.441 4.20193 14.211C3.36493 15.115 3.32693 16.685 3.71793 17.702C4.21593 19.042 5.59293 19.792 6.73793 19.937C6.94193 19.968 7.14593 19.986 7.36093 19.986C8.03493 19.986 8.67493 19.823 9.29793 19.667C9.32126 19.661 9.34093 19.6587 9.35693 19.66C9.38493 19.66 9.43993 19.66 9.44993 19.802C9.46793 20.079 9.48493 20.394 9.49893 20.698C9.51893 21.193 9.54393 21.66 9.57893 21.858C9.66093 22.297 9.87893 22.833 10.0249 23.186C10.0869 23.335 10.1349 23.452 10.1489 23.511C10.2049 23.711 10.1529 23.93 10.0179 24.054C9.54793 24.487 8.58793 24.829 8.41193 24.854C8.12893 24.888 7.82793 24.905 7.60593 24.916C7.49593 24.922 7.40593 24.926 7.36093 24.933C7.26174 24.9433 7.16901 24.9871 7.09793 25.057C6.96293 25.189 6.81793 25.566 6.64493 26.002C6.54093 26.265 6.43693 26.538 6.32993 26.763C6.02893 27.261 5.52693 27.555 5.03993 27.835C4.91726 27.905 4.79726 27.9767 4.67993 28.05L4.66593 28.064C4.46593 28.382 4.26393 28.683 4.00493 28.911C3.80493 29.098 3.54793 29.14 3.29893 29.171H3.28193L3.27193 29.185C2.89093 29.621 2.76993 30.198 2.64893 30.762C2.63093 30.8493 2.61226 30.9347 2.59293 31.018L2.57593 31.098H2.62493C2.82493 31.122 3.02493 31.164 3.23693 31.212C3.51693 31.274 3.80393 31.337 4.08793 31.337C4.35793 31.337 4.58593 31.281 4.79393 31.167C5.15693 31.001 5.35093 30.665 5.54093 30.344C5.66593 30.133 5.79393 29.911 5.96693 29.742C6.01504 29.6873 6.07474 29.644 6.14169 29.6153C6.20863 29.5866 6.28114 29.5732 6.35393 29.576C6.49593 29.576 6.65193 29.617 6.79993 29.659C6.93893 29.697 7.07993 29.735 7.21493 29.742C7.88693 29.78 8.52293 29.358 8.83093 29.112C8.96593 29.005 9.10093 28.877 9.23193 28.756C9.43593 28.566 9.64393 28.368 9.86893 28.23C10.1419 28.098 10.4709 28.036 10.8789 28.036C11.3839 28.036 11.9199 28.136 12.3459 28.216C12.5729 28.275 12.8064 28.3052 13.0409 28.306C13.4239 28.313 13.802 28.22 14.1379 28.036C14.5119 27.826 14.8879 27.628 15.1899 27.469C15.3659 27.375 15.5219 27.296 15.6429 27.227C16.1789 26.933 16.6359 26.116 16.8049 25.777C16.9649 25.462 17.2349 24.781 17.2379 24.774L17.2519 24.743L16.6249 24.265L16.6009 24.307C16.6009 24.307 16.1859 24.988 15.9199 25.303C14.8159 26.805 13.0199 26.998 11.5779 26.998C11.4779 26.994 11.3786 26.9917 11.2799 26.991C9.49493 26.991 8.05593 27.59 7.00393 28.773C6.95593 28.828 6.86893 28.839 6.83393 28.79C6.81393 28.763 6.80693 28.718 6.82093 28.662C6.84223 28.5568 6.88219 28.4562 6.93893 28.365C8.05593 26.777 9.96593 26.542 11.5049 26.514C12.6429 26.438 13.4699 26.241 14.1899 25.874C15.1139 25.404 15.7949 24.366 16.0649 23.542C16.2409 23.002 16.3279 22.425 16.4109 21.868C16.4769 21.425 16.5459 20.968 16.6559 20.546C16.6659 20.5198 16.6836 20.4972 16.7066 20.4812C16.7296 20.4651 16.7569 20.4564 16.7849 20.456C16.7979 20.456 16.8089 20.456 16.8289 20.466C16.8889 20.477 16.9989 20.518 16.9989 20.605C16.8429 21.477 16.6319 22.674 17.0299 23.67C17.2169 24.064 17.6109 24.258 18.2409 24.258C18.6209 24.258 19.0369 24.192 19.4409 24.13C19.7529 24.082 20.0469 24.033 20.2989 24.023C20.4056 24.013 20.5143 24.0083 20.6249 24.009C21.1259 24.009 21.6109 24.106 22.0779 24.199C22.4859 24.282 22.9079 24.365 23.3399 24.386C23.4173 24.39 23.4993 24.396 23.5859 24.404C23.7349 24.417 23.8899 24.428 24.0499 24.428C24.4159 24.428 24.6759 24.355 24.8629 24.203C24.9939 24.096 24.9489 23.933 24.8899 23.729L24.8799 23.691C24.8706 23.6557 24.8589 23.6177 24.8449 23.577C24.7619 23.307 24.6349 22.899 24.8449 22.708C24.8792 22.6832 24.9206 22.6699 24.9629 22.67C24.9969 22.67 25.0459 22.68 25.0599 22.736L25.1289 22.971C25.2219 23.297 25.3189 23.636 25.5269 23.926C25.9669 24.486 26.6439 25.019 27.4879 25.459C28.0319 25.832 28.6849 26.462 28.7379 27.341C28.7379 27.739 28.3499 28.015 28.0629 28.188C27.6089 28.413 26.8339 28.666 26.4679 28.666C26.4193 28.6697 26.3706 28.6614 26.3259 28.642C25.7999 28.362 25.5299 27.908 25.2429 27.427C25.0929 27.1632 24.9231 26.9111 24.7349 26.673C24.4609 26.369 24.1149 26.251 23.6479 26.289C23.1979 26.324 22.7829 26.41 22.2919 26.514C22.2441 26.5223 22.199 26.5422 22.1605 26.5718C22.122 26.6014 22.0913 26.6399 22.0709 26.684C22.0495 26.7365 22.0408 26.7933 22.0455 26.8497C22.0502 26.9062 22.0682 26.9608 22.0979 27.009C22.3539 27.465 22.5999 27.88 22.8629 28.319L22.9809 28.517C23.0429 28.624 23.1779 28.638 23.2879 28.638C23.3479 28.638 23.4126 28.6347 23.4819 28.628C23.5553 28.6227 23.6303 28.6193 23.7069 28.618C23.9349 28.618 24.0809 28.673 24.1739 28.787C24.2539 28.907 24.3229 29.036 24.3919 29.16C24.5649 29.468 24.7419 29.79 25.0389 30.018C25.3089 30.258 25.6989 30.392 26.1079 30.392C26.2879 30.392 26.4609 30.364 26.6269 30.316C27.8069 29.946 28.9549 29.566 30.0479 28.981C30.0479 28.981 30.4809 28.974 30.6469 28.96L30.6429 28.95ZM32.6049 15.72C32.5849 15.793 32.5389 15.841 32.4869 15.841C32.4669 15.841 32.4109 15.831 32.3939 15.737C32.1969 14.731 32.0789 14.236 31.8469 13.772C31.7749 13.624 31.6809 13.499 31.6019 13.388C31.4319 13.157 31.2869 12.959 31.4499 12.69C31.4979 12.61 31.6189 12.558 31.7499 12.558C31.8159 12.5587 31.8749 12.5713 31.9269 12.596C32.1209 12.69 32.3109 12.925 32.5049 13.316C32.9889 14.309 32.6049 15.71 32.6009 15.724L32.6049 15.72ZM38.9329 25.746C38.9329 25.746 38.9009 26.03 38.7699 26.154C38.6349 26.275 38.1579 26.341 37.9049 26.334C37.6529 26.324 37.5659 26.289 37.5149 26.213C37.4549 26.126 37.5519 25.957 37.5519 25.957C37.5829 25.895 37.8769 25.282 38.4719 25.12C38.4719 25.12 38.6619 25.05 38.8459 25.14C39.0289 25.23 38.9429 25.687 38.9359 25.75L38.9329 25.746ZM40.6549 21.788C40.6375 21.9279 40.5955 22.0637 40.5309 22.189C40.4999 22.245 40.4479 22.366 40.2749 22.369C40.0849 22.369 40.0979 22.148 40.0979 22.117C40.0979 22.117 40.0739 21.497 39.9559 21.238C39.8279 20.954 39.2059 20.155 38.8459 20.19C38.7559 20.197 38.5209 20.339 38.3479 20.563C38.1369 20.837 38.1369 20.871 38.0709 20.913C38.0049 20.955 37.9219 20.933 37.8949 20.771C37.8669 20.608 37.8349 20.477 37.9119 20.169C37.9879 19.861 38.0639 19.792 38.1539 19.571C38.1539 19.571 38.3409 19.138 38.4099 19.031C38.6039 18.737 38.8599 18.758 38.8599 18.758C38.9289 18.761 39.1499 18.733 39.3899 19.031C39.6659 19.377 39.6069 19.346 39.6829 19.467C39.7589 19.587 39.8429 19.716 40.0709 19.965C40.2989 20.215 40.5509 20.698 40.6209 20.999C40.6899 21.3 40.6869 21.556 40.6479 21.789L40.6549 21.788Z" fill="#D2003C"/>
</g>
</svg>
